# File created by Blade
# Date/Time:  Wed Sep 24 19:42:34 2014
# Frame Rate: 120.000 fps
#------------------------------------------------------
:FULLY-SPECIFIED
:DEGREES
2499
root -4.575725 33.091390 -3.557803 7.984619 5.531876 -1.607124
Spine -13.590230 14.853564 -7.750307
Head 22.097622 -14.403330 2.911972
LeftShoulder -15.462314 25.156676 5.962461
LeftArm 21.686473 18.538693 -59.600820
LeftForeArm 3.413096 -0.000000 32.731833
LeftHand -25.261221 0.000000 -6.344837
LeftHandThumb1 -26.253704 0.000000 33.147579
RightShoulder 267.283404 63.883205 201.703538
RightArm -16.914972 30.559771 36.571150
RightForeArm 70.666158 -0.000000 150.518570
RightHand 10.608395 -0.000000 0.468222
RightHandThumb1 -24.326973 -0.000000 -32.862282
LeftUpLeg -3.190487 2.680830 5.614757
LeftLeg -2.194076 -0.000000 0.000000
LeftFoot -6.542438 3.814336 -19.296186
LeftToeBase 10.536212 -0.000000 -0.000000
RightUpLeg -4.453716 -9.591328 0.013476
RightLeg 2.107202 -0.000000 -0.000000
RightFoot -5.698922 -6.101283 -14.615655
RightToeBase 0.852561 -0.000000 -0.000000
2500
root -4.573978 33.092227 -3.562879 7.989208 5.565596 -1.594948
Spine -13.535321 14.846723 -7.724747
Head 22.086944 -14.457772 2.940381
LeftShoulder -15.404720 25.091785 6.006939
LeftArm 21.754619 18.736470 -59.529488
LeftForeArm 3.398045 0.000000 32.499282
LeftHand -25.213642 -0.000000 -6.487110
LeftHandThumb1 -26.253704 0.000000 33.147579
RightShoulder 267.327952 63.932404 201.812925
RightArm -16.907313 30.773518 36.562714
RightForeArm 70.563891 0.000000 150.473581
RightHand 10.733911 -0.000000 0.527207
RightHandThumb1 -24.326973 -0.000000 -32.862282
LeftUpLeg -3.238642 2.647099 5.601682
LeftLeg -2.136052 -0.000000 0.000000
LeftFoot -6.553356 3.815214 -19.281062
LeftToeBase 10.544773 -0.000000 -0.000000
RightUpLeg -4.468671 -9.593552 0.001107
RightLeg 2.120304 -0.000000 -0.000000
RightFoot -5.670465 -6.122155 -14.588242
RightToeBase 0.773043 -0.000000 -0.000000
2501
root -4.573102 33.093480 -3.568543 7.988986 5.589502 -1.590244
Spine -13.471257 14.863322 -7.694256
Head 22.093583 -14.511387 2.976051
LeftShoulder -15.312263 25.021389 6.053815
LeftArm 21.793687 18.924966 -59.461973
LeftForeArm 3.388230 -0.000000 32.295670
LeftHand -25.207758 0.000000 -6.591954
LeftHandThumb1 -26.253704 0.000000 33.147579
RightShoulder 267.181054 63.945636 201.721333
RightArm -16.933701 30.935084 36.583004
RightForeArm 70.376972 -0.000000 150.428416
RightHand 10.856070 -0.000000 0.439026
RightHandThumb1 -24.326973 -0.000000 -32.862282
LeftUpLeg -3.282266 2.615339 5.595764
LeftLeg -2.074053 -0.000000 0.000000
LeftFoot -6.559635 3.826904 -19.243745
LeftToeBase 10.439508 -0.000000 -0.000000
RightUpLeg -4.492156 -9.608814 -0.000731
RightLeg 2.154315 -0.000000 -0.000000
RightFoot -5.672500 -6.147545 -14.609240
RightToeBase 0.793086 -0.000000 -0.000000
2502
root -4.571988 33.094472 -3.572951 7.992357 5.600778 -1.586944
Spine -13.420692 14.894524 -7.657899
Head 22.111465 -14.573745 2.968305
LeftShoulder -15.237349 24.974008 6.086160
LeftArm 21.875661 19.150790 -59.351955
LeftForeArm 3.337573 -0.000000 32.073462
LeftHand -25.195851 -0.000000 -6.671523
LeftHandThumb1 -26.253704 0.000000 33.147579
RightShoulder 267.061220 63.964591 201.622294
RightArm -17.006240 31.228752 36.539041
RightForeArm 70.414904 -0.000000 150.392618
RightHand 10.885056 0.000000 0.433383
RightHandThumb1 -24.326973 -0.000000 -32.862282
LeftUpLeg -3.323166 2.603617 5.588984
LeftLeg -2.017329 -0.000000 0.000000
LeftFoot -6.586595 3.825423 -19.259651
LeftToeBase 10.517319 -0.000000 -0.000000
RightUpLeg -4.515265 -9.649045 0.000047
RightLeg 2.176438 -0.000000 -0.000000
RightFoot -5.678539 -6.121206 -14.624614
RightToeBase 0.832337 -0.000000 -0.000000
2503
root -4.570384 33.096209 -3.578366 7.996583 5.611622 -1.580433
Spine -13.359585 14.940711 -7.632167
Head 22.159849 -14.724870 2.800158
LeftShoulder -15.168638 24.902765 6.114328
LeftArm 21.963786 19.409755 -59.217706
LeftForeArm 3.283298 0.000000 31.866661
LeftHand -25.230273 -0.000000 -6.689480
LeftHandThumb1 -26.253704 0.000000 33.147579
RightShoulder 266.908358 63.938492 201.497001
RightArm -17.057005 31.449610 36.535587
RightForeArm 70.370291 -0.000000 150.365437
RightHand 10.992293 -0.000000 0.324912
RightHandThumb1 -24.326973 -0.000000 -32.862282
LeftUpLeg -3.367948 2.580366 5.578177
LeftLeg -1.956382 -0.000000 0.000000
LeftFoot -6.599769 3.840836 -19.242638
LeftToeBase 10.501426 -0.000000 -0.000000
RightUpLeg -4.545858 -9.709518 -0.001360
RightLeg 2.207192 -0.000000 -0.000000
RightFoot -5.667462 -6.086367 -14.621408
RightToeBase 0.766672 -0.000000 -0.000000
2504
root -4.568964 33.097209 -3.582026 8.002706 5.613752 -1.579659
Spine -13.316836 14.980323 -7.598358
Head 22.192728 -14.779363 2.803099
LeftShoulder -15.144275 24.930948 6.118083
LeftArm 22.140353 19.618917 -59.067136
LeftForeArm 3.269342 -0.000000 31.660925
LeftHand -25.203856 -0.000000 -6.802411
LeftHandThumb1 -26.253704 0.000000 33.147579
RightShoulder 267.023592 63.963525 201.638131
RightArm -17.067667 31.773765 36.511446
RightForeArm 70.280543 0.000000 150.355372
RightHand 11.149564 -0.000000 0.299829
RightHandThumb1 -24.326973 -0.000000 -32.862282
LeftUpLeg -3.401252 2.584174 5.571921
LeftLeg -1.914950 -0.000000 0.000000
LeftFoot -6.606986 3.836763 -19.242879
LeftToeBase 10.510518 -0.000000 -0.000000
RightUpLeg -4.572244 -9.808391 0.004625
RightLeg 2.229998 -0.000000 -0.000000
RightFoot -5.681858 -5.993028 -14.652848
RightToeBase 0.729901 -0.000000 -0.000000
2505
root -4.567221 33.097933 -3.586249 8.014981 5.593075 -1.575227
Spine -13.281417 15.032782 -7.572696
Head 22.214729 -14.774537 2.837067
LeftShoulder -15.111276 24.929510 6.125828
LeftArm 22.247161 19.800367 -58.948984
LeftForeArm 3.294123 -0.000000 31.500146
LeftHand -25.193561 -0.000000 -6.861414
LeftHandThumb1 -26.253704 0.000000 33.147579
RightShoulder 267.062210 63.993022 201.653166
RightArm -17.178095 32.098597 36.403882
RightForeArm 70.194349 -0.000000 150.378508
RightHand 11.255016 -0.000000 0.212029
RightHandThumb1 -24.326973 -0.000000 -32.862282
LeftUpLeg -3.434451 2.608130 5.557618
LeftLeg -1.878575 -0.000000 0.000000
LeftFoot -6.623994 3.835335 -19.249916
LeftToeBase 10.578916 -0.000000 -0.000000
RightUpLeg -4.603571 -9.879510 0.011094
RightLeg 2.247794 -0.000000 -0.000000
RightFoot -5.702402 -5.930807 -14.705340
RightToeBase 0.856555 -0.000000 -0.000000
2506
root -4.565979 33.098263 -3.589701 8.033417 5.580180 -1.578103
Spine -13.264221 15.064898 -7.542451
Head 22.237845 -14.738835 2.887470
LeftShoulder -15.087716 24.961073 6.133348
LeftArm 22.337982 19.919783 -58.872800
LeftForeArm 3.345362 -0.000000 31.377625
LeftHand -25.169831 -0.000000 -6.804100
LeftHandThumb1 -26.253704 0.000000 33.147579
RightShoulder 267.334231 64.037506 202.007246
RightArm -17.055504 32.456572 36.440146
RightForeArm 70.026600 0.000000 150.367225
RightHand 11.285407 -0.000000 0.134522
RightHandThumb1 -24.326973 -0.000000 -32.862282
LeftUpLeg -3.475468 2.634883 5.552352
LeftLeg -1.839224 -0.000000 0.000000
LeftFoot -6.639783 3.840833 -19.206722
LeftToeBase 10.555991 -0.000000 -0.000000
RightUpLeg -4.638558 -9.967880 0.023110
RightLeg 2.257572 -0.000000 -0.000000
RightFoot -5.705919 -5.847601 -14.725469
RightToeBase 0.773068 -0.000000 -0.000000
2507
root -4.564740 33.098736 -3.592168 8.048061 5.549091 -1.576593
Spine -13.236522 15.106682 -7.524165
Head 22.263992 -14.704248 2.919771
LeftShoulder -15.083289 24.943249 6.135308
LeftArm 22.365368 20.014291 -58.815510
LeftForeArm 3.427962 -0.000000 31.313969
LeftHand -25.234920 -0.000000 -6.737234
LeftHandThumb1 -26.253704 0.000000 33.147579
RightShoulder 267.397238 64.061122 202.099902
RightArm -17.058363 32.680297 36.386846
RightForeArm 69.863408 0.000000 150.355366
RightHand 11.302482 -0.000000 0.069182
RightHandThumb1 -24.326973 -0.000000 -32.862282
LeftUpLeg -3.492508 2.661801 5.541942
LeftLeg -1.830730 -0.000000 0.000000
LeftFoot -6.642854 3.848812 -19.190089
LeftToeBase 10.573259 -0.000000 -0.000000
RightUpLeg -4.665878 -10.038753 0.025829
RightLeg 2.263945 -0.000000 -0.000000
RightFoot -5.722382 -5.762189 -14.771658
RightToeBase 0.814699 -0.000000 -0.000000
2508
root -4.564606 33.098807 -3.595500 8.077855 5.517283 -1.577379
Spine -13.224203 15.138206 -7.511509
Head 22.266362 -14.668798 2.939056
LeftShoulder -15.108579 24.966966 6.117691
LeftArm 22.418130 20.062465 -58.754028
LeftForeArm 3.479777 -0.000000 31.279610
LeftHand -25.151377 -0.000000 -6.786269
LeftHandThumb1 -26.253704 0.000000 33.147579
RightShoulder 267.546541 64.096143 202.294699
RightArm -17.006029 32.861433 36.337906
RightForeArm 69.494402 -0.000000 150.328634
RightHand 11.452106 -0.000000 -0.143295
RightHandThumb1 -24.326973 -0.000000 -32.862282
LeftUpLeg -3.529423 2.711725 5.534209
LeftLeg -1.816827 -0.000000 0.000000
LeftFoot -6.646406 3.836579 -19.196210
LeftToeBase 10.559874 -0.000000 -0.000000
RightUpLeg -4.707551 -10.102977 0.036547
RightLeg 2.263386 -0.000000 -0.000000
RightFoot -5.734419 -5.676751 -14.775178
RightToeBase 0.792384 -0.000000 -0.000000
2509
root -4.563138 33.098573 -3.596519 8.092896 5.483316 -1.574964
Spine -13.202570 15.162285 -7.496075
Head 22.282519 -14.617416 2.937677
LeftShoulder -15.132875 24.987230 6.087654
LeftArm 22.409446 20.051044 -58.729973
LeftForeArm 3.588014 -0.000000 31.316623
LeftHand -25.085348 -0.000000 -7.035635
LeftHandThumb1 -26.253704 0.000000 33.147579
RightShoulder 267.592167 64.132096 202.371468
RightArm -16.987140 32.909793 36.300678
RightForeArm 68.961975 -0.000000 150.309347
RightHand 11.440997 0.000000 -0.387987
RightHandThumb1 -24.326973 -0.000000 -32.862282
LeftUpLeg -3.539760 2.763775 5.521354
LeftLeg -1.817856 -0.000000 0.000000
LeftFoot -6.641749 3.826193 -19.185072
LeftToeBase 10.572004 -0.000000 -0.000000
RightUpLeg -4.726202 -10.161791 0.036906
RightLeg 2.258465 -0.000000 -0.000000
RightFoot -5.745270 -5.609331 -14.818758
RightToeBase 0.743796 -0.000000 -0.000000
2510
root -4.562857 33.098371 -3.598459 8.124870 5.448871 -1.580780
Spine -13.202938 15.178531 -7.478918
Head 22.283131 -14.569226 2.928608
LeftShoulder -15.172934 25.012001 6.043366
LeftArm 22.378977 20.001724 -58.715825
LeftForeArm 3.660944 -0.000000 31.385937
LeftHand -24.991175 -0.000000 -7.206754
LeftHandThumb1 -26.253704 0.000000 33.147579
RightShoulder 267.877795 64.176613 202.734956
RightArm -16.844531 32.952974 36.341480
RightForeArm 68.390133 -0.000000 150.246792
RightHand 11.210143 -0.000000 -0.620083
RightHandThumb1 -24.326973 -0.000000 -32.862282
LeftUpLeg -3.558435 2.815785 5.519427
LeftLeg -1.845091 -0.000000 0.000000
LeftFoot -6.602299 3.792705 -19.229636
LeftToeBase 10.460771 -0.000000 -0.000000
RightUpLeg -4.761664 -10.201225 0.050378
RightLeg 2.246166 -0.000000 -0.000000
RightFoot -5.746286 -5.545183 -14.857025
RightToeBase 0.765258 -0.000000 -0.000000
